<?xml version="1.0" standalone="no"?>
<!DOCTYPE svg PUBLIC "-//W3C//DTD SVG 20010904//EN"
 "http://www.w3.org/TR/2001/REC-SVG-20010904/DTD/svg10.dtd">
<svg version="1.0" xmlns="http://www.w3.org/2000/svg"
 width="500.000000pt" height="500.000000pt" viewBox="0 0 500.000000 500.000000"
 preserveAspectRatio="xMidYMid meet">
<metadata>
Created by potrace 1.14, written by Peter Selinger 2001-2017
</metadata>
<g transform="translate(0.000000,500.000000) scale(0.100000,-0.100000)"
fill="#000000" stroke="none">
<path d="M2500 4743 c-635 -37 -1088 -302 -1391 -815 -110 -184 -186 -387
-225 -595 -22 -122 -29 -377 -14 -515 41 -370 209 -722 468 -976 332 -326 762
-502 1227 -502 408 0 754 130 1110 417 273 220 450 489 550 833 55 190 68 305
62 530 -6 219 -22 330 -73 489 -18 58 -32 106 -31 106 1 1 40 27 85 59 46 32
86 55 89 53 3 -3 -7 -56 -20 -118 l-26 -112 37 -128 c20 -71 40 -129 43 -129
3 0 18 62 33 138 16 75 37 175 48 222 11 47 22 123 25 170 6 85 6 85 71 180
36 52 83 131 103 176 38 80 94 263 83 273 -10 11 -301 4 -364 -8 -36 -7 -106
-26 -156 -43 l-91 -31 -65 26 c-93 38 -172 57 -258 63 -137 10 -128 -22 38
-128 50 -33 92 -64 92 -68 0 -9 -117 -90 -129 -90 -4 0 -29 23 -56 51 -55 56
-190 169 -202 169 -5 0 3 -9 17 -20 l25 -21 -30 7 c-16 4 -35 7 -42 7 -7 0
-13 4 -13 8 0 4 -9 5 -20 2 -11 -3 -20 0 -20 6 0 6 -9 11 -20 11 -11 0 -20 6
-20 14 0 19 -31 29 -64 20 -16 -4 -26 -2 -26 5 0 6 -7 8 -15 5 -8 -4 -15 -12
-15 -20 0 -8 -4 -14 -10 -14 -5 0 -10 11 -10 24 0 14 -4 28 -10 31 -5 3 -7 0
-5 -7 4 -9 -3 -14 -17 -15 -13 0 -17 1 -10 4 6 3 12 9 12 14 0 4 -7 6 -15 3
-8 -4 -15 -1 -15 6 0 7 -8 9 -20 5 -13 -4 -20 -2 -20 7 0 11 -2 11 -9 0 -6
-10 -10 -9 -14 7 -3 12 -13 21 -22 21 -9 0 -14 4 -11 8 3 5 -8 6 -25 4 -16 -2
-29 -10 -29 -18 0 -8 -9 -14 -20 -14 -23 0 -26 19 -7 39 6 8 0 6 -15 -3 -25
-16 -27 -16 -40 3 -8 12 -18 18 -21 14 -6 -6 -11 11 -9 28 1 4 -7 5 -18 2 -12
-3 -17 -11 -14 -21 3 -10 -2 -6 -10 8 -15 25 -15 25 -16 -17 0 -30 7 -50 24
-69 20 -24 32 -28 91 -32 68 -5 74 -22 7 -22 -38 0 -92 -21 -109 -42 -7 -8
-19 -50 -27 -94 l-14 -79 -2 60 c-3 84 -11 107 -49 132 -27 18 -48 23 -101 23
-115 0 -137 -16 -153 -110 -2 -14 -5 -4 -6 22 -1 55 -17 74 -69 84 l-37 8 39
8 c53 11 66 24 67 67 1 20 5 47 9 61 6 19 8 12 9 -31 2 -89 24 -103 150 -92
62 5 79 11 105 34 25 22 30 34 31 73 0 25 4 46 8 46 5 0 2 7 -7 15 -20 21 -25
19 -20 -7 l5 -23 -10 23 c-6 12 -15 22 -21 22 -6 0 -9 4 -6 9 7 10 -49 33 -58
24 -3 -4 -6 -1 -6 6 0 7 -4 10 -9 6 -5 -3 -12 -1 -16 5 -4 7 -12 7 -25 0 -15
-8 -18 -7 -14 3 3 8 -2 14 -13 14 -10 -1 -34 1 -53 2 -29 2 -32 4 -15 11 16 7
17 9 3 9 -9 1 -20 -3 -23 -9 -3 -5 -11 -10 -16 -10 -6 0 -8 4 -5 9 3 5 -4 8
-17 7 -12 0 -42 -2 -67 -3z m240 -43 c0 -5 -5 -10 -11 -10 -5 0 -7 5 -4 10 3
6 8 10 11 10 2 0 4 -4 4 -10z m-570 -90 c0 -5 -4 -10 -10 -10 -5 0 -10 5 -10
10 0 6 5 10 10 10 6 0 10 -4 10 -10z m650 -36 c0 -14 -3 -14 -15 -4 -8 7 -15
14 -15 16 0 2 7 4 15 4 8 0 15 -7 15 -16z m-480 -34 c0 -24 -26 -38 -42 -22
-16 16 -2 42 22 42 13 0 20 -7 20 -20z m830 -60 c0 -5 -9 -10 -20 -10 -11 0
-20 5 -20 10 0 6 9 10 20 10 11 0 20 -4 20 -10z m250 -25 c7 -8 8 -15 2 -15
-5 0 -15 7 -22 15 -7 8 -8 15 -2 15 5 0 15 -7 22 -15z m-1188 -97 c165 -76
258 -265 214 -436 -21 -82 -56 -141 -117 -196 -77 -69 -142 -91 -269 -91 -100
0 -108 1 -167 34 -77 41 -146 113 -181 189 -23 49 -27 70 -27 152 0 83 4 103
28 155 30 63 90 132 145 167 103 64 266 75 374 26z m1053 2 c0 -20 -6 -26 -27
-28 -24 -3 -28 0 -28 22 0 25 13 36 40 33 9 -1 15 -13 15 -27z m165 20 c0 -5
-4 -10 -9 -10 -6 0 -13 5 -16 10 -3 6 1 10 9 10 9 0 16 -4 16 -10z m1140 -17
c0 -34 -66 -178 -110 -243 -68 -100 -162 -186 -326 -296 -336 -227 -615 -364
-778 -381 -74 -8 -69 7 12 37 64 23 190 97 255 149 40 33 99 100 161 183 l28
39 -58 -26 c-33 -15 -86 -38 -119 -52 -114 -48 -170 -81 -275 -161 -58 -44
-106 -79 -108 -77 -7 6 42 92 83 145 23 30 80 91 126 135 95 90 429 345 562
429 149 93 285 135 445 135 91 1 102 -1 102 -16z m-1120 -130 c25 -8 29 -12
14 -12 -35 -1 -68 -36 -80 -83 l-12 -43 -1 36 c-1 46 -31 84 -73 94 l-33 7 35
8 c37 9 70 41 70 69 0 37 14 29 29 -16 13 -40 22 -50 51 -60z m-308 65 c-7 -7
-12 -8 -12 -2 0 6 3 14 7 17 3 4 9 5 12 2 2 -3 -1 -11 -7 -17z m422 7 c3 -9
-1 -18 -10 -22 -19 -7 -28 2 -21 22 8 19 23 19 31 0z m-537 -37 c-9 -85 22
-136 91 -148 l37 -7 -30 -7 c-72 -18 -113 -59 -116 -116 -1 -20 -2 -21 -6 -5
-4 21 -33 105 -36 105 -1 0 -27 9 -57 20 l-55 19 41 0 c70 1 101 39 119 144 8
50 17 47 12 -5z m-309 -42 c4 -21 -14 -37 -35 -29 -14 5 -18 35 -6 47 12 12
38 1 41 -18z m-1178 -6 c0 -5 -2 -10 -4 -10 -3 0 -8 5 -11 10 -3 6 -1 10 4 10
6 0 11 -4 11 -10z m2108 -37 c5 -18 -28 -29 -38 -12 -5 7 -6 17 -3 22 7 12 35
5 41 -10z m-1028 -23 c0 -5 -4 -10 -10 -10 -5 0 -10 5 -10 10 0 6 5 10 10 10
6 0 10 -4 10 -10z m176 -71 c3 -6 2 -15 -2 -19 -12 -12 -38 5 -30 19 9 14 23
14 32 0z m-1385 -135 c7 -8 26 -21 43 -29 l31 -13 -26 -1 c-44 -2 -77 -36 -85
-89 l-7 -47 -12 53 c-15 63 -35 87 -83 100 l-37 10 37 1 c53 1 88 35 96 91 l6
45 12 -53 c7 -29 18 -59 25 -68z m100 53 c-13 -13 -26 -3 -16 12 3 6 11 8 17
5 6 -4 6 -10 -1 -17z m1993 -73 c28 -11 -13 -33 -59 -34 -66 0 -107 -17 -173
-71 l-64 -51 44 -21 43 -20 -56 -8 c-30 -4 -79 -17 -107 -28 -29 -12 -52 -16
-52 -11 0 6 3 10 8 10 4 0 61 49 126 110 94 87 126 111 159 119 51 11 110 13
131 5z m-613 -71 c19 -5 19 -7 -9 -19 -17 -7 -34 -23 -38 -36 l-8 -23 -6 25
c-3 14 -19 32 -37 41 l-32 16 37 9 c29 7 38 15 40 34 4 23 5 23 18 -9 8 -18
23 -35 35 -38z m-183 -74 c15 -1 15 -2 0 -6 -10 -2 -18 -13 -18 -23 0 -10 -5
-22 -10 -25 -6 -4 -10 -3 -9 2 4 22 -3 34 -23 43 -23 9 -23 9 -2 9 13 1 25 10
29 24 l8 22 4 -22 c2 -13 12 -24 21 -24z m-1146 -4 c0 -5 -5 -11 -11 -13 -6
-2 -11 4 -11 13 0 9 5 15 11 13 6 -2 11 -8 11 -13z m976 -172 c7 -12 36 -31
64 -42 47 -18 49 -20 23 -21 -37 0 -88 -30 -110 -64 -9 -14 -19 -44 -22 -66
-7 -48 -13 -46 -20 7 -8 66 -42 115 -93 135 -40 15 -42 17 -17 17 72 2 120 51
135 139 6 37 6 36 17 -23 6 -33 16 -70 23 -82z m-928 117 c0 -5 -2 -10 -4 -10
-3 0 -8 5 -11 10 -3 6 -1 10 4 10 6 0 11 -4 11 -10z m-420 -85 c0 -8 -4 -15
-9 -15 -13 0 -22 16 -14 24 11 11 23 6 23 -9z m2896 -205 c-12 -335 -162 -652
-444 -942 -57 -59 -101 -111 -98 -117 4 -5 -2 -15 -13 -21 -12 -6 -18 -16 -15
-25 4 -8 1 -15 -6 -15 -6 0 -8 5 -5 10 3 6 -4 10 -17 10 -13 0 -34 7 -47 16
l-23 16 31 30 c39 38 60 100 41 123 -23 27 -48 16 -148 -65 -126 -101 -220
-159 -408 -252 -162 -80 -297 -133 -444 -173 -52 -15 -113 -33 -135 -40 l-40
-13 35 -1 c19 0 54 4 78 8 24 5 40 5 35 1 -7 -7 -53 -18 -298 -71 -49 -10
-139 -22 -200 -26 -85 -5 -103 -8 -80 -15 81 -23 189 -38 275 -39 107 -1 94
-10 -49 -30 -137 -19 -307 7 -397 62 -33 20 -121 126 -112 135 3 3 41 0 84 -5
86 -11 252 0 338 22 46 12 41 13 -76 9 -148 -5 -259 13 -354 59 -78 37 -102
61 -47 48 21 -5 99 -12 173 -15 351 -16 829 110 1230 323 499 265 820 611 960
1035 l32 97 66 39 67 40 8 -41 c5 -23 6 -103 3 -177z m-2511 159 c73 -50 96
-147 52 -223 -73 -128 -288 -87 -304 58 -6 52 16 123 47 151 53 48 146 54 205
14z m1591 -21 c-20 -49 -29 -113 -21 -159 6 -34 13 -43 42 -55 19 -8 64 -18
99 -21 l65 -6 -33 -35 c-69 -71 -596 -397 -614 -379 -2 2 35 36 83 75 93 74
160 139 152 146 -8 8 -235 -97 -549 -253 -168 -84 -300 -149 -295 -143 6 5
105 71 220 147 244 161 372 255 435 319 l45 47 -58 -20 c-32 -11 -102 -41
-154 -66 -53 -25 -98 -45 -101 -45 -6 0 233 184 414 318 113 85 238 157 276
161 4 1 1 -14 -6 -31z m511 -65 c-8 -10 -41 -56 -72 -103 -39 -58 -73 -95
-107 -118 -27 -19 -52 -31 -55 -28 -4 3 18 32 48 63 30 32 75 84 99 116 24 32
55 64 69 72 34 19 37 18 18 -2z m-2560 -85 c9 -10 23 -18 32 -19 9 0 2 -7 -16
-16 -22 -11 -38 -30 -51 -62 l-19 -46 -1 45 c-1 36 -7 50 -29 67 -27 22 -27
23 -6 23 25 0 47 28 60 75 8 30 8 30 11 -10 2 -22 11 -48 19 -57z m713 -28
c-21 -13 -35 17 -19 37 12 13 14 13 23 -7 7 -16 6 -24 -4 -30z m190 6 c0 -28
-24 -41 -39 -22 -15 18 -3 46 20 46 13 0 19 -7 19 -24z m330 10 c0 -8 -4 -17
-9 -21 -12 -7 -24 12 -16 25 9 15 25 12 25 -4z m-127 -75 c22 -9 22 -9 -5 -20
-22 -8 -29 -19 -34 -52 -7 -42 -24 -37 -24 8 0 12 -11 30 -25 41 -24 19 -24
20 -5 25 11 3 28 19 37 36 l18 31 8 -31 c4 -17 17 -34 30 -38z m-272 -137
l-16 -21 -10 21 c-9 16 -8 26 4 42 l16 21 10 -21 c9 -16 8 -26 -4 -42z m-196
36 c3 -5 -1 -10 -10 -10 -9 0 -13 5 -10 10 3 6 8 10 10 10 2 0 7 -4 10 -10z
m1835 -45 c-12 -15 -30 -12 -30 6 0 5 10 9 21 9 18 0 19 -2 9 -15z m-2370 -31
c0 -8 5 -14 12 -14 6 0 0 -10 -13 -22 l-24 -23 -13 24 c-10 20 -10 27 4 42 18
20 34 17 34 -7z m2280 12 c0 -3 -4 -8 -10 -11 -5 -3 -10 -1 -10 4 0 6 5 11 10
11 6 0 10 -2 10 -4z m-1861 -40 c-106 -19 -227 -84 -312 -170 -124 -123 -181
-267 -175 -441 2 -52 0 -91 -3 -87 -23 25 -42 125 -42 212 1 159 50 273 156
363 97 83 243 136 377 135 l65 0 -66 -12z m721 -96 c0 -21 -24 -28 -35 -10 -8
14 3 30 21 30 8 0 14 -9 14 -20z m1084 5 c9 -24 -4 -45 -29 -45 -27 0 -40 26
-24 46 15 18 45 18 53 -1z m-1571 -30 c-95 -29 -234 -124 -321 -220 -64 -70
-135 -210 -158 -311 -42 -189 23 -427 157 -578 28 -31 47 -56 42 -56 -18 0
-122 101 -168 163 -102 135 -145 256 -146 407 -1 150 39 249 147 368 101 112
244 196 388 227 79 17 113 17 59 0z m1377 -68 c20 -14 20 -15 -4 -31 -14 -9
-29 -31 -34 -49 l-9 -32 -7 38 c-5 26 -14 41 -32 49 l-24 11 23 11 c12 6 29
25 37 43 l15 31 8 -29 c4 -15 16 -34 27 -42z m-1048 -19 c-6 -6 -16 -7 -22 -3
-9 6 -9 9 1 16 17 10 34 0 21 -13z m822 -82 l25 -19 -22 -12 c-12 -6 -30 -26
-39 -45 -16 -33 -17 -33 -18 -9 0 28 -16 52 -44 66 -17 9 -17 11 6 16 24 6 47
41 49 75 1 9 5 1 9 -18 5 -19 20 -44 34 -54z m-956 23 c-2 -6 -8 -10 -13 -10
-5 0 -11 4 -13 10 -2 6 4 11 13 11 9 0 15 -5 13 -11z m1252 -39 c0 -5 -4 -10
-10 -10 -5 0 -10 5 -10 10 0 6 5 10 10 10 6 0 10 -4 10 -10z m-650 -50 c0 -5
-2 -10 -4 -10 -3 0 -8 5 -11 10 -3 6 -1 10 4 10 6 0 11 -4 11 -10z m59 -89
c30 -22 49 -75 38 -104 -5 -14 -23 -12 -194 18 -23 4 -33 11 -33 24 0 23 36
70 64 82 32 13 91 4 125 -20z m348 -17 c8 -21 -13 -42 -28 -27 -13 13 -5 43
11 43 6 0 13 -7 17 -16z m-1217 -34 c0 -5 -4 -10 -10 -10 -5 0 -10 5 -10 10 0
6 5 10 10 10 6 0 10 -4 10 -10z m200 -80 c15 -11 34 -20 42 -21 7 0 -5 -6 -27
-12 -32 -10 -44 -21 -59 -52 l-20 -40 -8 32 c-5 18 -25 45 -45 62 -34 28 -35
31 -15 31 37 0 62 19 80 58 l17 37 3 -37 c2 -28 11 -43 32 -58z m345 40 c3 -5
1 -10 -4 -10 -6 0 -11 5 -11 10 0 6 2 10 4 10 3 0 8 -4 11 -10z m241 -47 c-5
-6 -96 18 -101 27 -2 4 20 0 50 -8 30 -8 53 -17 51 -19z m264 -8 c0 -8 -4 -15
-10 -15 -5 0 -10 7 -10 15 0 8 5 15 10 15 6 0 10 -7 10 -15z m-725 -44 c3 -5
1 -12 -5 -16 -5 -3 -10 1 -10 9 0 18 6 21 15 7z m65 5 c0 -3 -4 -8 -10 -11 -5
-3 -10 -1 -10 4 0 6 5 11 10 11 6 0 10 -2 10 -4z m-406 -62 c19 -18 21 -55 4
-72 -7 -7 -24 -12 -38 -12 -48 0 -67 45 -33 82 20 22 46 23 67 2z m566 -34 c0
-12 7 -20 18 -21 14 0 13 -2 -4 -9 -12 -4 -25 -17 -29 -27 -6 -17 -8 -16 -16
5 -4 12 -16 22 -26 22 -13 1 -11 5 10 16 15 8 27 19 27 24 0 6 5 10 10 10 6 0
10 -9 10 -20z m1487 -89 c-172 -213 -452 -393 -717 -462 -84 -21 -242 -51
-247 -45 -2 2 25 13 59 26 125 45 322 141 419 205 54 35 134 98 177 140 44 41
85 75 91 75 7 0 9 5 5 13 -4 6 -3 9 1 4 5 -4 17 0 27 10 30 27 21 6 -32 -72
-28 -41 -48 -75 -44 -75 17 0 178 127 238 189 39 39 72 68 74 66 3 -2 -20 -36
-51 -74z m-2315 37 c-9 -9 -15 -9 -24 0 -10 10 -10 15 2 22 9 6 19 5 24 0 7
-7 6 -14 -2 -22z m538 -18 c0 -10 10 -22 23 -26 l22 -8 -25 -6 c-14 -3 -30
-16 -36 -29 l-12 -22 -6 26 c-4 14 -16 29 -28 34 -21 8 -21 8 4 14 15 4 30 16
33 27 8 24 25 17 25 -10z m-442 -38 c2 -7 -3 -12 -12 -12 -9 0 -16 7 -16 16 0
17 22 14 28 -4z m197 -42 c3 -5 -1 -10 -9 -10 -9 0 -16 5 -16 10 0 6 4 10 9
10 6 0 13 -4 16 -10z m1150 -175 c-80 -49 -287 -126 -336 -125 -8 1 52 25 132
54 80 30 163 63 185 74 54 29 68 27 19 -3z m336 -364 l28 -17 -30 -11 c-19 -8
-33 -23 -41 -44 l-11 -32 -16 34 c-9 20 -31 41 -51 51 l-35 18 37 0 c31 0 40
5 53 30 8 16 15 37 16 47 1 10 6 1 11 -20 7 -25 20 -45 39 -56z m-526 -40 l90
-7 -55 -7 c-296 -39 -487 -46 -620 -23 l-75 13 90 2 c50 1 140 8 200 15 123
15 236 17 370 7z"/>
<path d="M1862 4284 c-31 -21 -28 -62 9 -137 25 -50 28 -58 11 -44 -19 18 -54
81 -67 122 -6 19 -7 19 -26 -4 -24 -29 -19 -73 17 -144 28 -56 29 -64 10 -45
-21 22 -56 95 -56 118 0 38 -17 12 -35 -55 -51 -191 58 -370 255 -421 82 -21
154 -13 235 25 61 28 135 85 135 102 0 5 -15 9 -32 8 -40 -3 -116 10 -122 20
-3 4 33 7 79 6 68 0 87 3 104 19 30 27 26 37 -10 24 -128 -44 -345 86 -374
225 -3 15 -26 48 -50 73 -31 31 -45 54 -45 72 0 22 -2 24 -11 12 -8 -12 -10
-9 -6 13 2 15 4 27 3 27 -1 0 -12 -7 -24 -16z m208 -376 c49 -29 87 -54 85
-57 -8 -7 -150 67 -170 89 -28 30 -13 25 85 -32z"/>
<path d="M2118 3983 c22 -31 52 -54 86 -67 11 -4 -2 13 -29 36 -65 58 -84 68
-57 31z"/>
<path d="M4186 4266 c-62 -23 -98 -65 -103 -123 -9 -89 38 -153 124 -169 44
-8 121 30 150 75 30 45 30 107 1 151 -47 68 -105 90 -172 66z m92 -80 c12 -12
4 -20 -54 -54 -38 -22 -72 -38 -76 -35 -18 11 -6 56 22 85 26 25 36 29 63 24
17 -4 38 -13 45 -20z"/>
<path d="M1382 3536 c4 -26 49 -57 94 -65 54 -9 75 -4 109 25 22 19 23 21 5
10 -51 -33 -172 -14 -200 31 -10 17 -11 17 -8 -1z"/>
<path d="M1357 3468 c-14 -96 97 -181 196 -149 40 13 71 44 87 85 9 25 9 27
-7 21 -10 -5 -43 -15 -73 -23 -48 -13 -61 -13 -105 0 l-50 14 80 -4 c72 -3 84
-1 115 20 19 13 36 32 38 42 3 16 1 16 -26 -4 -62 -46 -171 -44 -221 4 l-29
27 -5 -33z"/>
<path d="M2700 2610 c-13 -8 -13 -10 2 -10 9 0 20 5 23 10 8 13 -5 13 -25 0z"/>
<path d="M3210 4529 c0 -5 5 -7 10 -4 6 3 10 8 10 11 0 2 -4 4 -10 4 -5 0 -10
-5 -10 -11z"/>
<path d="M3490 4486 c0 -2 7 -7 16 -10 8 -3 12 -2 9 4 -6 10 -25 14 -25 6z"/>
<path d="M1942 1192 l-22 -3 2 -362 c1 -199 4 -404 6 -456 l3 -94 225 5 c124
3 226 7 228 9 2 2 7 39 11 82 l7 77 -156 0 -156 0 0 369 0 369 -62 4 c-35 1
-73 2 -86 0z"/>
<path d="M2612 918 c-50 -156 -114 -355 -143 -442 -28 -88 -53 -165 -56 -173
-4 -11 11 -13 83 -11 l88 3 18 60 c123 407 173 563 180 551 4 -7 50 -140 102
-294 52 -154 99 -289 106 -301 11 -21 16 -21 173 -19 l162 3 78 160 78 159 86
-162 87 -162 93 0 c51 0 93 3 93 6 0 3 -8 18 -19 32 -25 37 -207 385 -222 425
-11 31 -7 40 87 214 55 100 103 181 109 179 12 -3 195 -362 224 -440 22 -59
30 -148 31 -323 l0 -93 80 0 80 0 0 184 0 185 130 261 c72 143 130 263 130
265 0 3 -40 5 -89 5 l-89 0 -24 -42 c-13 -24 -48 -98 -78 -165 -30 -67 -58
-123 -62 -123 -3 0 -12 16 -18 35 -16 49 -119 277 -132 293 -9 10 -51 12 -186
10 l-175 -3 -67 -135 -67 -134 -28 54 c-15 30 -48 92 -73 138 l-46 82 -98 0
c-54 0 -98 -2 -98 -5 0 -3 22 -40 48 -83 77 -124 192 -328 192 -342 0 -7 -18
-45 -39 -84 -21 -39 -71 -133 -110 -210 l-71 -138 -19 43 c-10 24 -77 218
-147 431 l-129 388 -81 0 -80 0 -92 -282z"/>
<path d="M1292 741 c-82 -247 -147 -452 -144 -455 3 -3 41 -6 84 -6 76 0 79 1
89 28 16 42 158 492 171 540 5 23 13 42 17 42 5 0 95 -252 109 -307 3 -10 -17
-13 -75 -13 l-79 0 -27 -75 -26 -75 123 0 123 0 27 -70 28 -70 89 0 c49 0 89
3 89 7 0 4 -51 163 -114 353 -63 190 -128 391 -146 448 l-32 102 -77 0 -78 0
-151 -449z"/>
<path d="M612 1160 c-33 -15 -47 -29 -62 -63 -18 -40 -20 -71 -21 -365 -1
-312 -1 -322 21 -367 15 -31 35 -53 64 -70 41 -24 49 -25 217 -25 96 0 191 5
211 10 66 19 68 28 68 272 l0 218 -135 0 -135 0 0 -80 0 -80 55 0 55 0 0 -75
c0 -72 -1 -76 -26 -85 -41 -16 -200 -13 -217 4 -12 12 -15 62 -16 264 -2 308
-8 292 126 295 103 2 113 -2 122 -60 l6 -38 79 -3 78 -3 -4 83 c-4 96 -19 133
-67 165 -32 22 -43 23 -205 23 -148 0 -177 -3 -214 -20z"/>
<path d="M2699 513 c-12 -38 -24 -74 -27 -80 -5 -14 99 -18 182 -7 52 8 51 1
14 102 l-19 52 -64 0 -63 0 -23 -67z"/>
</g>
</svg>
