<?xml version="1.0" standalone="no"?>
<!DOCTYPE svg PUBLIC "-//W3C//DTD SVG 20010904//EN"
 "http://www.w3.org/TR/2001/REC-SVG-20010904/DTD/svg10.dtd">
<svg version="1.0" xmlns="http://www.w3.org/2000/svg"
 width="500.000000pt" height="500.000000pt" viewBox="0 0 500.000000 500.000000"
 preserveAspectRatio="xMidYMid meet">
<metadata>
Created by potrace 1.14, written by Peter Selinger 2001-2017
</metadata>
<g transform="translate(0.000000,500.000000) scale(0.100000,-0.100000)"
fill="#000000" stroke="none">
<path d="M2190 4444 c-36 -8 -85 -19 -110 -24 -146 -28 -308 -128 -353 -217
-8 -17 -29 -31 -63 -42 -202 -67 -340 -278 -385 -589 -28 -196 -17 -449 26
-577 7 -22 16 -92 19 -155 9 -185 53 -381 98 -439 12 -16 18 -40 18 -73 0 -42
3 -50 25 -60 19 -8 35 -8 62 0 21 6 64 14 96 18 62 7 77 27 32 44 -17 6 -25
17 -25 33 0 12 -6 32 -14 43 -8 11 -19 40 -26 64 -7 24 -18 53 -26 64 -8 11
-14 42 -14 68 0 26 -9 70 -20 98 -16 40 -18 55 -9 72 7 13 9 44 5 82 -4 34 -7
68 -8 76 -5 56 15 118 75 231 70 133 69 131 138 114 19 -5 33 0 57 20 29 24
31 30 25 71 -6 47 -3 50 28 34 13 -8 25 -7 40 0 18 10 20 18 15 58 -15 132
-17 182 -7 182 12 0 79 -42 102 -65 9 -8 24 -15 33 -15 10 0 30 -7 44 -15 126
-69 282 -109 577 -150 99 -14 215 -38 329 -69 33 -10 73 -14 91 -10 28 5 39 1
71 -29 22 -19 49 -39 62 -46 12 -6 22 -19 22 -27 0 -18 -18 -14 -98 22 -36 16
-81 26 -135 30 -45 3 -94 7 -109 9 -52 6 -100 -55 -65 -83 6 -5 48 -12 92 -16
116 -8 184 -21 238 -46 26 -12 58 -20 70 -18 20 3 22 8 19 56 -2 40 1 52 12
52 20 0 85 -69 92 -97 4 -13 12 -23 18 -23 13 0 60 -93 62 -125 1 -11 10 -54
19 -95 11 -49 15 -101 12 -155 -5 -95 -7 -106 -27 -122 -13 -11 -13 -12 3 -13
24 0 21 -23 -8 -69 -35 -57 -40 -85 -19 -120 17 -29 17 -31 0 -50 -10 -11 -30
-21 -44 -23 -36 -4 -44 -38 -9 -38 13 0 44 -7 68 -16 52 -18 108 -11 110 14 1
9 1 31 0 49 -2 19 10 55 27 90 42 80 87 309 83 415 -1 23 8 57 23 86 62 122
99 398 77 575 -22 183 -65 311 -149 442 -58 90 -237 268 -327 326 -118 75
-266 130 -405 150 -36 5 -78 14 -95 20 -50 20 -485 22 -565 3z m542 -39 c20
-8 65 -17 101 -21 41 -4 68 -12 71 -20 3 -8 16 -14 29 -14 13 0 32 -6 43 -14
18 -14 18 -15 2 -21 -36 -14 -17 -26 32 -19 28 4 50 4 50 0 0 -16 -47 -69 -67
-77 -16 -6 -23 -17 -23 -34 0 -19 -5 -25 -22 -26 -13 0 -32 -2 -43 -4 -11 -2
-40 -7 -64 -10 -50 -8 -81 -20 -132 -52 -20 -13 -51 -25 -69 -28 -35 -4 -67
-15 -136 -46 -110 -48 -270 -58 -402 -24 -31 8 -77 15 -103 15 -88 0 -133 45
-150 150 -10 63 -1 100 25 100 7 0 18 11 24 25 6 14 18 26 27 26 32 3 36 4 43
15 11 18 77 42 160 58 42 9 91 20 107 25 17 5 127 10 246 10 169 1 224 -2 251
-14z m-1094 -357 c17 -17 15 -26 -9 -33 -18 -6 -19 -9 -6 -23 8 -10 17 -28 19
-42 3 -23 0 -25 -29 -22 -24 2 -33 -1 -33 -12 0 -20 -19 -31 -33 -17 -18 18
-42 13 -52 -11 -6 -13 -18 -24 -27 -26 -27 -5 -24 45 2 53 14 4 19 13 16 23
-6 20 29 62 80 97 41 28 55 30 72 13z"/>
<path d="M2907 4234 c-15 -15 -6 -24 24 -24 20 0 29 4 27 13 -5 14 -40 21 -51
11z"/>
<path d="M2886 4191 c-4 -7 -5 -15 -2 -18 9 -9 19 4 14 18 -4 11 -6 11 -12 0z"/>
<path d="M1547 3974 c-13 -13 -7 -24 14 -24 11 0 19 5 17 12 -5 14 -22 21 -31
12z"/>
<path d="M1928 3265 c-54 -7 -103 -17 -110 -22 -7 -6 -31 -16 -53 -23 -53 -17
-65 -27 -65 -59 0 -53 41 -66 100 -30 36 23 173 49 253 49 27 0 57 5 68 10 26
14 24 55 -3 74 -26 18 -55 18 -190 1z"/>
<path d="M1876 3042 c-8 -13 116 -24 145 -13 20 8 16 10 -27 10 -28 1 -65 4
-82 7 -16 3 -32 2 -36 -4z"/>
<path d="M2984 3025 c-15 -14 -32 -25 -38 -25 -23 0 -97 -88 -116 -138 -18
-46 -18 -55 -5 -91 7 -22 24 -54 36 -70 23 -31 105 -71 146 -71 20 0 23 4 18
21 -6 18 -4 20 27 14 85 -16 156 120 114 219 -15 37 -71 93 -101 102 -11 4
-26 11 -33 17 -18 14 3 27 46 27 17 0 32 5 32 10 0 6 -22 10 -49 10 -39 0 -56
-5 -77 -25z m-10 -81 c20 -8 21 -57 1 -74 -33 -27 -73 8 -61 53 6 27 26 34 60
21z m126 -244 c0 -15 -7 -20 -25 -20 -24 0 -34 18 -18 33 15 15 43 7 43 -13z"/>
<path d="M1805 3016 c-40 -18 -108 -90 -103 -110 2 -11 17 -3 58 34 30 28 63
52 73 56 9 3 17 12 17 20 0 17 -6 17 -45 0z"/>
<path d="M3130 3015 c0 -9 8 -18 18 -22 9 -3 24 -12 32 -20 76 -69 110 -88
110 -62 0 21 -122 119 -148 119 -7 0 -12 -7 -12 -15z"/>
<path d="M1928 2996 c-15 -6 -37 -22 -48 -34 -12 -12 -25 -22 -30 -22 -20 0
-53 -85 -53 -132 1 -83 54 -144 145 -166 63 -16 68 -15 68 8 0 11 5 20 10 20
6 0 10 8 10 18 0 11 11 24 25 30 33 15 35 15 35 -3 0 -26 24 -15 48 21 41 66
22 152 -50 221 -54 51 -105 64 -160 39z m26 -52 c27 -10 20 -62 -9 -76 -30
-13 -55 3 -55 36 0 37 27 54 64 40z"/>
<path d="M1657 2873 c-4 -3 -7 -18 -7 -32 1 -25 1 -25 15 -7 23 30 15 63 -8
39z"/>
<path d="M3351 2794 c0 -11 3 -14 6 -6 3 7 2 16 -1 19 -3 4 -6 -2 -5 -13z"/>
<path d="M3400 2780 c0 -5 5 -10 10 -10 6 0 10 5 10 10 0 6 -4 10 -10 10 -5 0
-10 -4 -10 -10z"/>
<path d="M3330 2371 c0 -28 17 -35 29 -13 11 21 6 32 -16 32 -7 0 -13 -9 -13
-19z"/>
<path d="M2326 2361 c-2 -3 -6 -18 -10 -32 -10 -44 11 -52 152 -55 164 -3 215
15 182 66 -8 13 -12 13 -32 1 -12 -8 -60 -16 -108 -18 -76 -4 -90 -2 -133 20
-26 13 -49 22 -51 18z"/>
<path d="M3917 2159 c-3 -12 -3 -35 0 -50 5 -27 9 -29 49 -29 37 0 44 3 44 19
0 25 -50 81 -71 81 -9 0 -19 -10 -22 -21z"/>
<path d="M996 2146 c-8 -31 2 -56 21 -56 10 0 13 10 11 37 -4 43 -23 55 -32
19z"/>
<path d="M3810 2110 c0 -5 7 -10 15 -10 8 0 15 5 15 10 0 6 -7 10 -15 10 -8 0
-15 -4 -15 -10z"/>
<path d="M3922 2018 c0 -24 -2 -128 -6 -233 -7 -222 -4 -245 30 -245 l24 0 0
183 c1 144 4 186 15 201 9 12 15 42 15 72 0 51 -1 53 -29 52 -15 -1 -33 2 -39
6 -7 4 -11 -7 -10 -36z"/>
<path d="M1000 1835 c0 -96 3 -115 15 -115 12 0 15 19 15 115 0 96 -3 115 -15
115 -12 0 -15 -19 -15 -115z"/>
<path d="M3844 1913 c3 -21 6 -57 6 -81 0 -31 4 -42 13 -39 19 7 5 157 -15
157 -7 0 -8 -14 -4 -37z"/>
<path d="M3841 1617 c-10 -18 -10 -33 -1 -65 6 -23 15 -42 20 -42 6 0 10 -12
10 -26 0 -18 -6 -28 -21 -31 -15 -4 -19 -12 -17 -32 3 -23 8 -26 51 -29 43 -3
47 -1 48 20 1 17 3 18 6 6 7 -26 23 -22 23 6 0 13 3 38 6 56 l7 32 -48 -3
c-50 -3 -67 9 -47 34 14 16 3 97 -13 97 -6 0 -17 -11 -24 -23z"/>
<path d="M1040 1490 c0 -11 5 -20 10 -20 6 0 10 9 10 20 0 11 -4 20 -10 20 -5
0 -10 -9 -10 -20z"/>
<path d="M2436 1463 c-11 -11 -6 -23 9 -23 8 0 15 4 15 9 0 13 -16 22 -24 14z"/>
<path d="M3888 1353 c-11 -3 -18 -14 -18 -28 0 -13 -4 -27 -10 -30 -5 -3 -10
-23 -10 -43 1 -33 2 -35 14 -19 14 19 36 23 36 7 0 -16 27 -11 34 6 8 20 8 62
0 92 -6 22 -13 24 -46 15z"/>
<path d="M1040 1330 c0 -11 5 -20 10 -20 6 0 10 9 10 20 0 11 -4 20 -10 20 -5
0 -10 -9 -10 -20z"/>
<path d="M1040 1241 c0 -30 -4 -41 -15 -41 -22 0 -91 -66 -140 -134 -59 -84
-105 -181 -151 -316 -34 -102 -38 -126 -39 -214 l0 -98 1795 0 1795 0 3 35 c4
41 -43 206 -92 329 -76 188 -157 319 -222 359 l-31 19 -7 -152 c-8 -184 -16
-249 -27 -242 -5 3 -9 -52 -8 -126 1 -76 -3 -136 -9 -142 -5 -5 -78 -11 -163
-12 -85 -2 -316 -9 -514 -16 -310 -11 -1408 -8 -2018 5 -127 3 -122 -7 -124
232 -2 168 0 198 14 208 19 14 13 49 -10 53 -11 2 -20 -5 -26 -20 -7 -18 -8
-12 -6 23 1 25 6 55 9 67 4 11 0 37 -9 58 -19 45 -13 67 21 83 21 9 25 17 22
44 -2 24 -8 33 -25 35 -21 3 -23 -1 -23 -37z"/>
<path d="M3886 1194 c-8 -21 1 -34 25 -34 14 0 19 7 19 25 0 29 -34 36 -44 9z"/>
<path d="M3800 1180 c0 -11 7 -20 15 -20 8 0 15 -6 15 -12 0 -7 9 -24 20 -38
25 -32 25 -56 0 -63 -11 -3 -20 -9 -20 -14 0 -16 63 -92 72 -87 11 7 10 44 -1
44 -19 0 -24 42 -7 52 24 13 21 79 -4 101 -11 9 -29 17 -39 17 -10 0 -21 9
-24 20 -3 11 -10 20 -16 20 -6 0 -11 -9 -11 -20z"/>
<path d="M1110 1104 c0 -8 5 -12 10 -9 6 3 10 10 10 16 0 5 -4 9 -10 9 -5 0
-10 -7 -10 -16z"/>
<path d="M2530 1034 c0 -8 9 -14 20 -14 11 0 20 4 20 9 0 5 -9 11 -20 14 -13
3 -20 0 -20 -9z"/>
<path d="M2470 960 c0 -5 7 -10 16 -10 8 0 12 5 9 10 -3 6 -10 10 -16 10 -5 0
-9 -4 -9 -10z"/>
<path d="M3743 951 c-33 -27 -30 -45 6 -38 27 6 31 3 41 -29 7 -20 10 -48 8
-64 -2 -16 0 -26 4 -23 5 3 6 -10 3 -29 -4 -22 -1 -48 9 -73 21 -49 20 -72 -3
-85 -34 -18 -9 -70 33 -70 15 0 17 5 13 27 -3 15 2 37 10 50 22 33 11 150 -14
168 -10 7 -22 11 -26 8 -5 -3 -4 4 2 15 6 11 11 43 11 70 0 42 -3 50 -25 60
-14 6 -25 16 -25 22 0 16 -23 11 -47 -9z"/>
<path d="M3886 891 c-8 -12 3 -61 14 -61 4 0 10 11 12 25 5 26 -15 54 -26 36z"/>
<path d="M1110 585 c0 -8 7 -15 15 -15 8 0 15 7 15 15 0 8 -7 15 -15 15 -8 0
-15 -7 -15 -15z"/>
</g>
</svg>
