<?xml version="1.0" standalone="no"?>
<!DOCTYPE svg PUBLIC "-//W3C//DTD SVG 20010904//EN"
 "http://www.w3.org/TR/2001/REC-SVG-20010904/DTD/svg10.dtd">
<svg version="1.0" xmlns="http://www.w3.org/2000/svg"
 width="500.000000pt" height="500.000000pt" viewBox="0 0 500.000000 500.000000"
 preserveAspectRatio="xMidYMid meet">
<metadata>
Created by potrace 1.14, written by Peter Selinger 2001-2017
</metadata>
<g transform="translate(0.000000,500.000000) scale(0.100000,-0.100000)"
fill="#000000" stroke="none">
<path d="M2435 4771 c-32 -13 -367 -360 -391 -405 -27 -49 3 -117 63 -142 56
-24 86 -11 175 78 44 44 81 78 83 76 2 -2 6 -68 9 -147 7 -161 14 -179 82
-201 29 -10 40 -8 78 11 28 14 47 30 50 45 4 13 9 83 12 156 3 73 8 135 10
137 3 3 42 -32 87 -76 45 -45 93 -85 107 -88 50 -12 120 36 135 92 10 41 -30
94 -208 275 -194 198 -224 217 -292 189z"/>
<path d="M2275 3859 c-16 -6 -43 -12 -60 -15 -16 -3 -51 -12 -76 -20 -25 -8
-55 -16 -66 -18 -12 -3 -29 -9 -39 -14 -11 -5 -56 -26 -101 -45 -122 -52 -372
-228 -390 -273 -8 -21 21 -59 59 -76 151 -71 168 -80 250 -145 98 -77 168
-154 225 -248 57 -94 84 -167 111 -295 17 -82 18 -84 52 -93 36 -9 136 -4 148
8 4 4 7 272 7 597 l0 590 -33 29 c-35 31 -41 32 -87 18z"/>
<path d="M2617 3853 c-15 -8 -33 -27 -38 -41 -11 -28 -4 -1180 7 -1191 3 -3
39 -6 79 -8 86 -2 105 9 105 63 0 34 65 244 78 254 4 3 20 29 35 59 16 30 34
60 40 66 7 7 28 32 47 56 97 120 183 186 342 266 67 33 91 50 99 71 9 24 7 30
-28 62 -73 65 -128 107 -223 166 -139 87 -328 159 -495 188 -11 2 -33 -3 -48
-11z"/>
<path d="M1377 3259 c-29 -22 -33 -29 -96 -155 -24 -49 -48 -97 -53 -108 -28
-54 -81 -253 -81 -304 0 -79 -14 -76 390 -77 409 -2 490 3 484 25 -44 187 -88
269 -210 391 -94 93 -165 143 -299 209 -83 40 -105 43 -135 19z"/>
<path d="M3505 3265 c-16 -8 -55 -25 -87 -39 -165 -75 -329 -230 -415 -394
-21 -40 -62 -183 -57 -197 8 -19 58 -21 429 -20 468 2 431 -1 444 36 9 25 5
51 -19 145 -38 143 -50 175 -113 303 -54 108 -98 166 -132 175 -11 3 -33 -1
-50 -9z"/>
<path d="M1239 2430 c-92 -7 -99 -15 -95 -108 8 -166 103 -428 203 -560 23
-31 28 -33 66 -27 22 4 62 20 89 36 27 16 53 29 58 29 5 0 15 6 22 13 7 7 29
23 48 34 20 12 46 30 57 41 12 10 34 27 49 38 36 25 154 147 154 158 0 3 16
31 36 62 40 63 79 165 89 237 l7 47 -53 1 c-147 5 -672 4 -730 -1z"/>
<path d="M2230 2431 c-25 -6 -29 -14 -35 -61 -2 -14 -6 -36 -9 -50 -3 -14 -8
-35 -10 -46 -27 -132 -133 -311 -261 -439 -68 -68 -218 -175 -320 -230 -41
-22 -51 -32 -53 -55 -2 -24 8 -38 64 -85 184 -156 364 -245 617 -305 82 -19
90 -20 121 -5 19 9 38 24 42 33 7 17 12 1019 6 1167 l-3 80 -67 1 c-37 1 -78
-1 -92 -5z"/>
<path d="M2600 2432 l-25 -8 0 -514 c0 -283 2 -564 5 -624 5 -110 5 -110 35
-127 29 -17 34 -17 135 6 172 38 325 99 438 176 23 16 45 29 48 29 3 0 10 4
17 10 19 15 99 79 125 98 12 9 29 30 38 46 15 26 14 29 -5 50 -11 12 -64 46
-117 76 -125 71 -237 162 -305 247 -59 73 -142 205 -154 244 -4 13 -11 29 -15
34 -9 12 -46 155 -55 213 -4 23 -7 42 -8 42 -59 7 -138 7 -157 2z"/>
<path d="M3003 2432 c-51 -3 -53 -4 -53 -31 0 -33 35 -151 57 -196 86 -169
221 -302 420 -413 108 -61 136 -69 169 -51 41 22 154 245 190 374 24 88 46
228 39 261 -11 59 -4 58 -403 58 -202 1 -391 0 -419 -2z"/>
<path d="M614 759 c-33 -12 -38 -27 -39 -116 -1 -46 -4 -86 -8 -90 -8 -8 -173
-10 -181 -2 -3 2 -8 43 -11 89 -6 94 -21 120 -66 120 -18 0 -35 -9 -49 -27
-21 -27 -21 -33 -15 -262 4 -148 10 -240 17 -249 22 -25 46 -33 72 -21 31 15
35 24 42 117 3 42 7 79 10 81 6 6 171 7 178 1 2 -3 7 -41 10 -85 6 -87 23
-115 71 -115 45 0 49 18 50 238 2 278 0 299 -34 316 -16 9 -34 11 -47 5z"/>
<path d="M1047 759 c-93 -22 -170 -87 -211 -181 -64 -145 22 -316 183 -367 90
-28 149 -22 228 26 71 42 101 86 123 178 19 77 13 122 -28 201 -52 102 -188
168 -295 143z m100 -136 c33 -7 82 -61 94 -103 24 -79 -29 -167 -112 -188 -74
-19 -156 35 -178 115 -11 39 6 100 36 132 24 26 104 61 123 54 8 -3 25 -8 37
-10z"/>
<path d="M1700 754 c-136 -37 -222 -154 -214 -292 4 -80 15 -104 76 -168 73
-77 164 -114 232 -95 19 5 37 7 39 4 8 -8 104 45 132 73 84 84 100 164 62 309
-9 33 -42 78 -80 109 -80 65 -158 84 -247 60z m178 -177 c43 -40 50 -134 14
-183 -17 -22 -82 -60 -112 -65 -8 -1 -24 1 -35 5 -87 32 -110 55 -126 123 -7
32 -4 47 18 90 23 46 32 55 77 72 49 18 51 18 96 -1 25 -11 55 -29 68 -41z"/>
<path d="M2825 758 c-76 -26 -148 -116 -141 -175 11 -80 63 -130 174 -163 84
-26 107 -43 92 -69 -10 -20 -60 -34 -87 -25 -10 3 -43 19 -73 34 l-55 28 -28
-27 c-56 -54 -4 -125 116 -157 86 -22 167 2 225 66 60 67 46 173 -29 222 -20
13 -71 34 -112 48 -86 26 -106 50 -68 81 25 21 75 17 130 -9 46 -22 83 -13
100 25 10 23 9 31 -6 52 -42 57 -166 93 -238 69z"/>
<path d="M3242 758 c-7 -7 -12 -8 -12 -2 0 5 -9 -6 -21 -25 -19 -32 -20 -44
-15 -256 3 -123 9 -230 12 -239 8 -20 53 -44 74 -39 27 6 42 44 47 122 3 42 7
78 10 81 6 7 160 6 167 -1 3 -3 8 -35 11 -72 9 -108 28 -139 78 -130 46 9 51
32 52 243 3 253 -2 298 -35 315 -21 11 -29 11 -52 -1 -16 -8 -28 -18 -29 -22
0 -4 -2 -45 -4 -90 -2 -46 -6 -86 -9 -90 -8 -7 -172 -9 -180 -1 -3 3 -8 42
-10 87 -5 79 -17 122 -36 122 -4 0 -14 2 -22 5 -7 3 -19 0 -26 -7z"/>
<path d="M3995 761 c-75 -19 -151 -67 -182 -117 -85 -133 -76 -252 27 -361 88
-93 209 -114 322 -57 191 96 215 341 47 474 -64 50 -154 76 -214 61z m116
-153 c34 -15 72 -74 75 -119 4 -60 -28 -112 -89 -142 l-52 -25 -49 19 c-60 23
-83 44 -100 93 -11 31 -10 45 3 84 19 58 35 76 91 100 46 20 54 19 121 -10z"/>
<path d="M2222 753 c-61 -8 -64 -23 -57 -285 5 -223 7 -234 27 -251 24 -20 76
-17 89 5 4 6 10 42 14 80 7 68 7 68 39 69 160 6 214 34 246 130 17 49 17 54
-1 111 -33 110 -78 139 -223 142 -56 2 -116 1 -134 -1z m199 -128 c17 -6 37
-48 33 -72 -1 -7 -2 -20 -3 -28 -1 -19 -75 -38 -116 -31 -21 4 -35 14 -38 25
-8 32 1 103 14 112 13 7 78 4 110 -6z"/>
<path d="M4449 746 l-24 -12 3 -254 c3 -250 3 -255 25 -272 23 -18 52 -15 74
6 7 6 15 40 19 76 3 36 7 66 8 67 1 1 39 5 85 8 54 5 94 13 114 25 38 24 84
91 93 137 13 67 -47 171 -121 211 -38 20 -240 26 -276 8z m243 -139 c24 -32
27 -50 13 -84 -11 -25 -20 -31 -56 -36 -58 -8 -96 1 -102 23 -9 33 0 112 13
120 7 5 36 6 64 4 37 -4 56 -11 68 -27z"/>
</g>
</svg>
